<mxfile host="65bd71144e">
    <diagram id="mQAWqXQmN0xKYYC6JLXO" name="PÃ¡gina-1">
        <mxGraphModel dx="934" dy="536" grid="1" gridSize="10" guides="1" tooltips="1" connect="1" arrows="1" fold="1" page="1" pageScale="1" pageWidth="827" pageHeight="1169" math="0" shadow="0">
            <root>
                <mxCell id="0"/>
                <mxCell id="1" parent="0"/>
                <mxCell id="3" style="edgeStyle=none;html=1;fontSize=14;fontColor=#000000;fillColor=#1ba1e2;strokeColor=#006EAF;" edge="1" parent="1" source="2">
                    <mxGeometry relative="1" as="geometry">
                        <mxPoint x="400" y="120" as="targetPoint"/>
                    </mxGeometry>
                </mxCell>
                <mxCell id="2" value="&lt;font style=&quot;font-size: 14px;&quot; color=&quot;#000000&quot;&gt;&lt;b&gt;INICIO&lt;/b&gt;&lt;/font&gt;" style="ellipse;whiteSpace=wrap;html=1;fillColor=#d80073;fontColor=#ffffff;strokeColor=#A50040;" vertex="1" parent="1">
                    <mxGeometry x="340" y="20" width="120" height="60" as="geometry"/>
                </mxCell>
                <mxCell id="5" style="edgeStyle=none;html=1;fontSize=14;fontColor=#000000;fillColor=#1ba1e2;strokeColor=#006EAF;" edge="1" parent="1" source="4">
                    <mxGeometry relative="1" as="geometry">
                        <mxPoint x="400" y="200" as="targetPoint"/>
                    </mxGeometry>
                </mxCell>
                <mxCell id="4" value="&lt;b&gt;&lt;font color=&quot;#000000&quot;&gt;N&lt;/font&gt;&lt;/b&gt;" style="shape=parallelogram;perimeter=parallelogramPerimeter;whiteSpace=wrap;html=1;fixedSize=1;fontSize=14;fontColor=#ffffff;fillColor=#6a00ff;strokeColor=#3700CC;" vertex="1" parent="1">
                    <mxGeometry x="340" y="120" width="120" height="50" as="geometry"/>
                </mxCell>
                <mxCell id="7" style="edgeStyle=none;html=1;fontSize=14;fontColor=#000000;fillColor=#1ba1e2;strokeColor=#006EAF;" edge="1" parent="1" source="6">
                    <mxGeometry relative="1" as="geometry">
                        <mxPoint x="400" y="320" as="targetPoint"/>
                    </mxGeometry>
                </mxCell>
                <mxCell id="6" value="&lt;b&gt;&lt;font color=&quot;#000000&quot;&gt;Suma=0&lt;br&gt;i=1&lt;/font&gt;&lt;/b&gt;" style="rounded=0;whiteSpace=wrap;html=1;fontSize=14;fontColor=#ffffff;fillColor=#60a917;strokeColor=#2D7600;" vertex="1" parent="1">
                    <mxGeometry x="340" y="200" width="120" height="60" as="geometry"/>
                </mxCell>
                <mxCell id="9" style="edgeStyle=none;html=1;fontSize=14;fontColor=#000000;fillColor=#1ba1e2;strokeColor=#006EAF;" edge="1" parent="1" source="8">
                    <mxGeometry relative="1" as="geometry">
                        <mxPoint x="400" y="440" as="targetPoint"/>
                    </mxGeometry>
                </mxCell>
                <mxCell id="11" style="edgeStyle=none;html=1;fontSize=14;fontColor=#000000;fillColor=#1ba1e2;strokeColor=#006EAF;" edge="1" parent="1" source="8">
                    <mxGeometry relative="1" as="geometry">
                        <mxPoint x="640" y="400" as="targetPoint"/>
                        <Array as="points">
                            <mxPoint x="640" y="360"/>
                        </Array>
                    </mxGeometry>
                </mxCell>
                <mxCell id="8" value="&lt;b&gt;&lt;font color=&quot;#000000&quot;&gt;i&amp;lt;=N&lt;/font&gt;&lt;/b&gt;" style="rhombus;whiteSpace=wrap;html=1;fontSize=14;fontColor=#ffffff;fillColor=#008a00;strokeColor=#005700;" vertex="1" parent="1">
                    <mxGeometry x="350" y="320" width="100" height="80" as="geometry"/>
                </mxCell>
                <mxCell id="10" value="&lt;b&gt;&lt;font color=&quot;#000000&quot;&gt;suma=suma+i&lt;br&gt;i=i+1&lt;/font&gt;&lt;/b&gt;" style="rounded=0;whiteSpace=wrap;html=1;fontSize=14;fontColor=#ffffff;fillColor=#a20025;strokeColor=#6F0000;" vertex="1" parent="1">
                    <mxGeometry x="340" y="440" width="120" height="60" as="geometry"/>
                </mxCell>
                <mxCell id="13" style="edgeStyle=none;html=1;fontSize=14;fontColor=#000000;fillColor=#1ba1e2;strokeColor=#006EAF;" edge="1" parent="1" source="12">
                    <mxGeometry relative="1" as="geometry">
                        <mxPoint x="640" y="560" as="targetPoint"/>
                    </mxGeometry>
                </mxCell>
                <mxCell id="12" value="&lt;b&gt;Suma&lt;/b&gt;" style="shape=document;whiteSpace=wrap;html=1;boundedLbl=1;fontSize=14;fontColor=#000000;fillColor=#fa6800;strokeColor=#C73500;" vertex="1" parent="1">
                    <mxGeometry x="580" y="400" width="120" height="70" as="geometry"/>
                </mxCell>
                <mxCell id="14" value="&lt;b&gt;FIN&lt;/b&gt;" style="ellipse;whiteSpace=wrap;html=1;fontSize=14;fontColor=#000000;fillColor=#f0a30a;strokeColor=#BD7000;" vertex="1" parent="1">
                    <mxGeometry x="580" y="560" width="120" height="60" as="geometry"/>
                </mxCell>
                <mxCell id="15" value="" style="endArrow=none;html=1;fontSize=14;fontColor=#000000;exitX=0.5;exitY=1;exitDx=0;exitDy=0;fillColor=#1ba1e2;strokeColor=#006EAF;" edge="1" parent="1" source="10">
                    <mxGeometry width="50" height="50" relative="1" as="geometry">
                        <mxPoint x="390" y="350" as="sourcePoint"/>
                        <mxPoint x="400" y="180" as="targetPoint"/>
                        <Array as="points">
                            <mxPoint x="400" y="560"/>
                            <mxPoint x="240" y="560"/>
                            <mxPoint x="240" y="180"/>
                        </Array>
                    </mxGeometry>
                </mxCell>
            </root>
        </mxGraphModel>
    </diagram>
</mxfile>